<svg width="20" height="20" viewBox="0 0 20 20" fill="none" xmlns="http://www.w3.org/2000/svg">
<path d="M10 1.66667C5.4 1.66667 1.66667 5.4 1.66667 10C1.66667 14.6 5.4 18.3333 10 18.3333C14.6 18.3333 18.3333 14.6 18.3333 10C18.3333 5.4 14.6 1.66667 10 1.66667ZM7.74167 13.575L4.75 10.5833C4.425 10.2583 4.425 9.73333 4.75 9.40833C5.075 9.08333 5.6 9.08333 5.925 9.40833L8.33333 11.8083L14.0667 6.075C14.3917 5.75 14.9167 5.75 15.2417 6.075C15.5667 6.4 15.5667 6.925 15.2417 7.25L8.91667 13.575C8.6 13.9 8.06667 13.9 7.74167 13.575Z" fill="#F3F3F3"/>
</svg>
