<svg width="20" height="20" viewBox="0 0 20 20" fill="none" xmlns="http://www.w3.org/2000/svg">
<path d="M13.75 10C14.9 10 15.825 9.06667 15.825 7.91667C15.825 6.76667 14.9 5.83333 13.75 5.83333C12.6 5.83333 11.6667 6.76667 11.6667 7.91667C11.6667 9.06667 12.6 10 13.75 10ZM7.5 9.16667C8.88333 9.16667 9.99167 8.05 9.99167 6.66667C9.99167 5.28333 8.88333 4.16667 7.5 4.16667C6.11667 4.16667 5 5.28333 5 6.66667C5 8.05 6.11667 9.16667 7.5 9.16667ZM13.75 11.6667C12.225 11.6667 9.16667 12.4333 9.16667 13.9583V15C9.16667 15.4583 9.54167 15.8333 10 15.8333H17.5C17.9583 15.8333 18.3333 15.4583 18.3333 15V13.9583C18.3333 12.4333 15.275 11.6667 13.75 11.6667ZM7.5 10.8333C5.55833 10.8333 1.66667 11.8083 1.66667 13.75V15C1.66667 15.4583 2.04167 15.8333 2.5 15.8333H7.5V13.9583C7.5 13.25 7.775 12.0083 9.475 11.0667C8.75 10.9167 8.05 10.8333 7.5 10.8333Z" fill="#F3F3F3"/>
</svg>
